<svg width="158" height="42" viewBox="0 0 158 42" fill="none" xmlns="http://www.w3.org/2000/svg">
<path d="M19.7119 37.6278C16.5932 36.8647 4.11861 41 4.11861 41H23.0628C23.0628 41 22.8305 38.3909 19.7119 37.6278Z" fill="black"/>
<path d="M27.5085 37.6278C24.3898 39.154 24.3898 41 24.3898 41H43.8813C43.8813 41 30.6271 36.1016 27.5085 37.6278Z" fill="black"/>
<path d="M23.6101 37.1847C20.4915 31.8431 4.11861 38.7109 4.11861 38.7109V5.89842C4.11861 5.89842 19.7119 -3.25855 23.6101 4.37227M23.6101 37.1847C23.6101 24.3707 23.6101 17.1863 23.6101 4.37227M23.6101 37.1847C27.5084 31.8431 43.8813 38.7109 43.8813 38.7109V5.89842C43.8813 5.89842 28.2881 -4.02161 23.6101 4.37227M1 6.66143V41H4.11861M47 11.2399V41H43.8813M27.5085 13.2369C32.1864 10.1847 35.7362 11.8351 40.7627 14.7631M27.5085 18.8707C32.1864 15.8185 35.7362 17.4689 40.7627 20.3969M27.5085 25.2369C32.1864 22.1847 35.7362 23.8351 40.7627 26.7631M7.23729 14C11.9153 12.4738 15.8136 9.42152 20.4915 13.2369M7.23729 19.6338C11.9153 18.1076 15.8136 15.0553 20.4915 18.8707M7.23729 26C11.9153 24.4738 15.8136 21.4215 20.4915 25.2369M4.11861 41C4.11861 41 16.5932 36.8647 19.7119 37.6278C22.8305 38.3909 23.0628 41 23.0628 41M4.11861 41H23.0628M23.0628 41H24.3898M24.3898 41C24.3898 41 24.3898 39.154 27.5085 37.6278C30.6271 36.1016 43.8813 41 43.8813 41M24.3898 41H43.8813" stroke="black" stroke-linecap="round"/>
<path d="M58.0586 14.9043L58.1758 9.33789C58.7227 9.29883 59.1361 9.2793 59.416 9.2793C60.3405 9.2793 61.0762 9.48763 61.623 9.9043C62.1699 10.3145 62.4434 10.9655 62.4434 11.8574C62.4434 13.8887 60.9818 14.9043 58.0586 14.9043ZM58.1562 22.3359L58.0586 15.5C58.5794 15.4609 59.0872 15.4414 59.582 15.4414C60.9818 15.4414 62.0951 15.6986 62.9219 16.2129C63.7487 16.7272 64.1621 17.5378 64.1621 18.6445C64.1621 19.2956 64.0417 19.8555 63.8008 20.3242C63.5599 20.7865 63.2572 21.1445 62.8926 21.3984C62.5345 21.6523 62.069 21.8542 61.4961 22.0039C60.9232 22.1471 60.3893 22.2383 59.8945 22.2773C59.4062 22.3164 58.8268 22.3359 58.1562 22.3359ZM59.6602 21.916C60.2461 21.877 60.7604 21.8086 61.2031 21.7109C61.6523 21.6133 62.0788 21.4505 62.4824 21.2227C62.8926 20.9948 63.2083 20.666 63.4297 20.2363C63.651 19.8001 63.7617 19.2695 63.7617 18.6445C63.7617 17.974 63.5339 17.4108 63.0781 16.9551C62.6224 16.4928 62.0853 16.1803 61.4668 16.0176C60.8483 15.8483 60.2135 15.7962 59.5625 15.8613L59.6602 21.916ZM59.6602 9.69922L59.582 14.4355C61.2227 14.1882 62.043 13.3288 62.043 11.8574C62.043 10.5098 61.2487 9.79036 59.6602 9.69922ZM54.0156 23.0586C55.2852 23.0195 56.7988 23 58.5566 23C59.1426 23 59.6699 22.987 60.1387 22.9609C60.6074 22.9349 61.1673 22.8796 61.8184 22.7949C62.4694 22.7038 63.0391 22.5573 63.5273 22.3555C64.0156 22.1471 64.4844 21.89 64.9336 21.584C65.3893 21.2715 65.7376 20.8646 65.9785 20.3633C66.2194 19.8555 66.3398 19.2663 66.3398 18.5957C66.3398 17.5736 65.9395 16.737 65.1387 16.0859C64.3379 15.4284 63.3516 15.0052 62.1797 14.8164V14.7383C62.9414 14.4974 63.5534 14.1393 64.0156 13.6641C64.4844 13.1823 64.7188 12.5801 64.7188 11.8574C64.7188 9.71549 63.0911 8.64453 59.8359 8.64453C59.582 8.64453 59.1556 8.65755 58.5566 8.68359C57.9577 8.70964 57.2936 8.72266 56.5645 8.72266C55.8418 8.72266 54.9987 8.69661 54.0352 8.64453C53.9831 8.76172 53.9831 8.91471 54.0352 9.10352C55.5326 9.24674 56.2878 9.55924 56.3008 10.041C56.3659 11.571 56.3984 13.3906 56.3984 15.5C56.3984 17.5638 56.3594 19.6178 56.2812 21.6621C56.2682 22.1439 55.513 22.4564 54.0156 22.5996C53.9635 22.7038 53.9635 22.8568 54.0156 23.0586ZM53.7617 8.22461C54.7057 8.26367 55.5977 8.2832 56.4375 8.2832C57.2773 8.2832 58.0977 8.27669 58.8984 8.26367C59.6992 8.25065 60.2461 8.24414 60.5391 8.24414C61.0859 8.24414 61.5807 8.26367 62.0234 8.30273C62.4727 8.3418 62.9707 8.4362 63.5176 8.58594C64.0645 8.72917 64.5234 8.92448 64.8945 9.17188C65.2721 9.41927 65.5879 9.77409 65.8418 10.2363C66.0957 10.6921 66.2227 11.2324 66.2227 11.8574C66.2227 13.0163 65.5814 13.9505 64.2988 14.6602C65.3535 14.9661 66.2064 15.4577 66.8574 16.1348C67.515 16.8053 67.8438 17.6257 67.8438 18.5957C67.8438 19.2272 67.7363 19.7936 67.5215 20.2949C67.3066 20.7897 67.0332 21.2031 66.7012 21.5352C66.3691 21.8607 65.946 22.1439 65.4316 22.3848C64.9173 22.6191 64.4225 22.8014 63.9473 22.9316C63.472 23.0553 62.9251 23.153 62.3066 23.2246C61.6882 23.3027 61.1576 23.3516 60.7148 23.3711C60.2786 23.3906 59.7936 23.4004 59.2598 23.4004C57.7103 23.4004 55.8711 23.4264 53.7422 23.4785C53.5794 23.0293 53.5794 22.6094 53.7422 22.2188C55.1549 22.0755 55.8678 21.8835 55.8809 21.6426C55.959 19.5983 55.998 17.5508 55.998 15.5C55.998 13.4036 55.9655 11.5905 55.9004 10.0605C55.8874 9.81966 55.1615 9.6276 53.7227 9.48438C53.612 9.06771 53.625 8.64779 53.7617 8.22461ZM74.1035 14.7578C74.7741 14.7578 75.3047 15.0801 75.6953 15.7246C76.0924 16.3626 76.291 17.3555 76.291 18.7031C76.291 20.0508 76.0924 21.0436 75.6953 21.6816C75.3047 22.3197 74.7741 22.6387 74.1035 22.6387C73.7324 22.6387 73.3939 22.5605 73.0879 22.4043C72.7884 22.248 72.5312 22.0072 72.3164 21.6816C72.1081 21.3561 71.9453 20.9492 71.8281 20.4609C71.7109 19.9661 71.6523 19.3802 71.6523 18.7031C71.6523 18.0326 71.7109 17.4499 71.8281 16.9551C71.9453 16.4538 72.1081 16.0436 72.3164 15.7246C72.5312 15.3991 72.7884 15.1582 73.0879 15.002C73.3939 14.8392 73.7324 14.7578 74.1035 14.7578ZM74.1035 23.2832C74.709 23.2832 75.2526 23.1693 75.7344 22.9414C76.2161 22.7135 76.6263 22.3978 76.9648 21.9941C77.3099 21.584 77.5736 21.099 77.7559 20.5391C77.9382 19.9792 78.0293 19.3672 78.0293 18.7031C78.0293 18.0391 77.9382 17.4271 77.7559 16.8672C77.5736 16.3073 77.3099 15.8255 76.9648 15.4219C76.6263 15.0117 76.2161 14.6927 75.7344 14.4648C75.2526 14.237 74.709 14.123 74.1035 14.123C73.459 14.123 72.8763 14.237 72.3555 14.4648C71.8346 14.6927 71.3919 15.0085 71.0273 15.4121C70.6693 15.8158 70.3926 16.3008 70.1973 16.8672C70.002 17.4271 69.9043 18.0391 69.9043 18.7031C69.9043 19.3737 70.002 19.9889 70.1973 20.5488C70.3926 21.1087 70.6693 21.5938 71.0273 22.0039C71.3919 22.4076 71.8346 22.7233 72.3555 22.9512C72.8763 23.1725 73.459 23.2832 74.1035 23.2832ZM74.4453 13.7227C75.2331 13.7227 75.9329 13.8431 76.5449 14.084C77.1634 14.3249 77.6842 14.6667 78.1074 15.1094C78.5306 15.5456 78.8529 16.0697 79.0742 16.6816C79.2956 17.2936 79.4062 17.9674 79.4062 18.7031C79.4062 19.4323 79.2956 20.1029 79.0742 20.7148C78.8529 21.3268 78.5306 21.8542 78.1074 22.2969C77.6908 22.7331 77.1732 23.0716 76.5547 23.3125C75.9362 23.5599 75.2331 23.6836 74.4453 23.6836C73.6641 23.6836 72.9642 23.5599 72.3457 23.3125C71.7337 23.0716 71.2161 22.7331 70.793 22.2969C70.3763 21.8542 70.0573 21.3301 69.8359 20.7246C69.6146 20.1126 69.5039 19.4388 69.5039 18.7031C69.5039 17.9674 69.6146 17.2936 69.8359 16.6816C70.0573 16.0697 70.3796 15.5456 70.8027 15.1094C71.2259 14.6667 71.7435 14.3249 72.3555 14.084C72.9674 13.8431 73.6641 13.7227 74.4453 13.7227ZM73.0293 18.7031C73.0293 20.806 73.5013 21.9714 74.4453 22.1992C75.4089 21.9714 75.8906 20.806 75.8906 18.7031C75.8906 16.6198 75.4089 15.4512 74.4453 15.1973C73.5013 15.4512 73.0293 16.6198 73.0293 18.7031ZM85.9395 14.7578C86.61 14.7578 87.1406 15.0801 87.5312 15.7246C87.9284 16.3626 88.127 17.3555 88.127 18.7031C88.127 20.0508 87.9284 21.0436 87.5312 21.6816C87.1406 22.3197 86.61 22.6387 85.9395 22.6387C85.5684 22.6387 85.2298 22.5605 84.9238 22.4043C84.6243 22.248 84.3672 22.0072 84.1523 21.6816C83.944 21.3561 83.7812 20.9492 83.6641 20.4609C83.5469 19.9661 83.4883 19.3802 83.4883 18.7031C83.4883 18.0326 83.5469 17.4499 83.6641 16.9551C83.7812 16.4538 83.944 16.0436 84.1523 15.7246C84.3672 15.3991 84.6243 15.1582 84.9238 15.002C85.2298 14.8392 85.5684 14.7578 85.9395 14.7578ZM85.9395 23.2832C86.5449 23.2832 87.0885 23.1693 87.5703 22.9414C88.0521 22.7135 88.4622 22.3978 88.8008 21.9941C89.1458 21.584 89.4095 21.099 89.5918 20.5391C89.7741 19.9792 89.8652 19.3672 89.8652 18.7031C89.8652 18.0391 89.7741 17.4271 89.5918 16.8672C89.4095 16.3073 89.1458 15.8255 88.8008 15.4219C88.4622 15.0117 88.0521 14.6927 87.5703 14.4648C87.0885 14.237 86.5449 14.123 85.9395 14.123C85.2949 14.123 84.7122 14.237 84.1914 14.4648C83.6706 14.6927 83.2279 15.0085 82.8633 15.4121C82.5052 15.8158 82.2285 16.3008 82.0332 16.8672C81.8379 17.4271 81.7402 18.0391 81.7402 18.7031C81.7402 19.3737 81.8379 19.9889 82.0332 20.5488C82.2285 21.1087 82.5052 21.5938 82.8633 22.0039C83.2279 22.4076 83.6706 22.7233 84.1914 22.9512C84.7122 23.1725 85.2949 23.2832 85.9395 23.2832ZM86.2812 13.7227C87.069 13.7227 87.7689 13.8431 88.3809 14.084C88.9993 14.3249 89.5202 14.6667 89.9434 15.1094C90.3665 15.5456 90.6888 16.0697 90.9102 16.6816C91.1315 17.2936 91.2422 17.9674 91.2422 18.7031C91.2422 19.4323 91.1315 20.1029 90.9102 20.7148C90.6888 21.3268 90.3665 21.8542 89.9434 22.2969C89.5267 22.7331 89.0091 23.0716 88.3906 23.3125C87.7721 23.5599 87.069 23.6836 86.2812 23.6836C85.5 23.6836 84.8001 23.5599 84.1816 23.3125C83.5697 23.0716 83.0521 22.7331 82.6289 22.2969C82.2122 21.8542 81.8932 21.3301 81.6719 20.7246C81.4505 20.1126 81.3398 19.4388 81.3398 18.7031C81.3398 17.9674 81.4505 17.2936 81.6719 16.6816C81.8932 16.0697 82.2155 15.5456 82.6387 15.1094C83.0618 14.6667 83.5794 14.3249 84.1914 14.084C84.8034 13.8431 85.5 13.7227 86.2812 13.7227ZM84.8652 18.7031C84.8652 20.806 85.3372 21.9714 86.2812 22.1992C87.2448 21.9714 87.7266 20.806 87.7266 18.7031C87.7266 16.6198 87.2448 15.4512 86.2812 15.1973C85.3372 15.4512 84.8652 16.6198 84.8652 18.7031ZM98.498 14.3379C98.4199 14.5137 98.4199 14.6667 98.498 14.7969C98.6999 14.8229 98.8854 14.875 99.0547 14.9531C99.2305 15.0247 99.3542 15.1322 99.4258 15.2754C99.4974 15.4121 99.4355 15.5684 99.2402 15.7441L97.2578 17.6191H96.4766C96.4635 15.6855 96.457 12.6191 96.457 8.41992C96.3919 8.30273 96.278 8.21484 96.1152 8.15625C95.2493 8.57292 94.2435 8.83984 93.0977 8.95703C93.0586 9.11979 93.0586 9.27279 93.0977 9.41602C93.9766 9.46159 94.6048 9.59505 94.9824 9.81641C94.9824 10.6302 94.9922 11.8542 95.0117 13.4883C95.0312 15.1224 95.041 16.5938 95.041 17.9023C95.041 19.2044 95.0117 20.4577 94.9531 21.6621C94.9401 22.1439 94.3867 22.4564 93.293 22.5996C93.2148 22.7624 93.2148 22.9154 93.293 23.0586C94.1523 23.0195 94.9792 23 95.7734 23C96.5482 23 97.362 23.0195 98.2148 23.0586C98.2995 22.9154 98.2995 22.7624 98.2148 22.5996C97.0951 22.4564 96.5352 22.1439 96.5352 21.6621C96.4961 20.9395 96.4766 19.8001 96.4766 18.2441H97.2383L99.8945 21.6621C100.285 22.1569 100.074 22.4499 99.2598 22.541C99.1816 22.6973 99.1816 22.8503 99.2598 23H101.496C102.232 23 103.059 23.0195 103.977 23.0586C104.055 22.9154 104.055 22.7624 103.977 22.5996C103.15 22.5085 102.57 22.349 102.238 22.1211C102.049 21.9974 101.883 21.8444 101.74 21.6621L98.4199 17.4824L100.139 15.7441C100.633 15.2363 101.454 14.9206 102.6 14.7969C102.652 14.6406 102.652 14.4876 102.6 14.3379C101.148 14.4225 99.7806 14.4225 98.498 14.3379ZM98.3223 13.9375C100.08 14.0026 101.597 13.9961 102.873 13.918C103.036 14.3216 103.046 14.7415 102.902 15.1777C101.685 15.3014 100.858 15.5814 100.422 16.0176L99.4941 16.9648L103.039 21.418C103.254 21.6849 103.443 21.8737 103.605 21.9844C103.775 22.0885 104.032 22.1732 104.377 22.2383C104.527 22.668 104.514 23.0618 104.338 23.4199C103.003 23.3418 101.262 23.3418 99.1133 23.4199C98.918 23.0098 98.8919 22.6159 99.0352 22.2383C99.4258 22.1602 99.5462 21.9681 99.3965 21.6621L97.8535 19.6992C97.8535 20.5391 97.8763 21.1934 97.9219 21.6621C97.9479 21.9681 98.1139 22.1602 98.4199 22.2383C98.5501 22.5833 98.5371 22.9772 98.3809 23.4199C96.6035 23.3809 94.8164 23.3809 93.0195 23.4199C92.7526 23.0228 92.7396 22.6289 92.9805 22.2383C94.0156 22.1081 94.543 21.9095 94.5625 21.6426C94.5885 20.998 94.6016 19.5625 94.6016 17.3359C94.6016 16.7891 94.5983 15.972 94.5918 14.8848C94.5853 13.791 94.582 13.0033 94.582 12.5215V10.0605C94.1523 9.92383 93.5566 9.83594 92.7949 9.79688C92.6517 9.41276 92.6517 8.99935 92.7949 8.55664C93.7064 8.47852 94.862 8.18555 96.2617 7.67773C96.9648 7.72982 97.4889 7.94466 97.834 8.32227V16.4961L98.957 15.4414C99.0482 15.3503 99.0417 15.2819 98.9375 15.2363C98.8854 15.2233 98.6706 15.1842 98.293 15.1191C98.0977 14.748 98.1074 14.3542 98.3223 13.9375ZM116.35 21.6621C116.35 22.1439 115.598 22.4564 114.094 22.5996C114.042 22.7038 114.042 22.8568 114.094 23.0586C115.201 23.0195 116.333 23 117.492 23C118.879 23 120.214 23.0195 121.496 23.0586C121.548 22.9414 121.548 22.7884 121.496 22.5996C119.335 22.4694 118.247 22.1569 118.234 21.6621C118.163 20.0475 118.127 18.1139 118.127 15.8613C118.127 13.5957 118.163 11.6556 118.234 10.041C118.247 9.54622 119.335 9.23372 121.496 9.10352C121.561 8.94076 121.561 8.78776 121.496 8.64453C119.784 8.69661 118.449 8.72266 117.492 8.72266C116.691 8.72266 115.559 8.69661 114.094 8.64453C114.055 8.80078 114.055 8.95378 114.094 9.10352C115.585 9.24674 116.337 9.55924 116.35 10.041C116.389 11.2389 116.421 13.0456 116.447 15.4609C115.249 15.5 114.117 15.5195 113.049 15.5195C111.265 15.5195 109.973 15.5065 109.172 15.4805C109.172 13.293 109.211 11.4798 109.289 10.041C109.302 9.54622 110.389 9.23372 112.551 9.10352C112.59 8.97982 112.59 8.82682 112.551 8.64453C110.845 8.69661 109.51 8.72266 108.547 8.72266C107.753 8.72266 106.62 8.69661 105.148 8.64453C105.096 8.76172 105.096 8.91471 105.148 9.10352C106.646 9.24674 107.401 9.55924 107.414 10.041C107.479 11.571 107.512 13.3906 107.512 15.5C107.512 17.5638 107.473 19.6178 107.395 21.6621C107.382 22.1439 106.626 22.4564 105.129 22.5996C105.077 22.7038 105.077 22.8568 105.129 23.0586C106.236 23.0195 107.368 23 108.527 23C109.914 23 111.249 23.0195 112.531 23.0586C112.583 22.9544 112.583 22.8014 112.531 22.5996C110.37 22.4694 109.283 22.1569 109.27 21.6621C109.204 19.7025 109.172 17.8698 109.172 16.1641C110.773 16.1315 112.066 16.1152 113.049 16.1152C114.117 16.1152 115.249 16.138 116.447 16.1836C116.434 17.6354 116.402 19.4616 116.35 21.6621ZM115.949 21.6621C116.001 19.071 116.034 17.4368 116.047 16.7598C114.771 16.7337 113.771 16.7207 113.049 16.7207C112.489 16.7207 111.965 16.724 111.477 16.7305C110.995 16.737 110.728 16.7402 110.676 16.7402C110.676 18.2441 110.708 19.8783 110.773 21.6426C110.773 21.6816 110.786 21.7207 110.812 21.7598C110.839 21.7988 110.884 21.8314 110.949 21.8574C111.014 21.8835 111.079 21.9128 111.145 21.9453C111.216 21.9714 111.304 21.9974 111.408 22.0234C111.519 22.0495 111.617 22.0723 111.701 22.0918C111.786 22.1113 111.893 22.1309 112.023 22.1504C112.16 22.1699 112.268 22.1862 112.346 22.1992C112.43 22.2122 112.541 22.2253 112.678 22.2383C112.821 22.2513 112.919 22.2643 112.971 22.2773C113.075 22.6419 113.055 23.0423 112.912 23.4785C110.51 23.4264 109.048 23.4004 108.527 23.4004C108.182 23.4004 106.958 23.4264 104.855 23.4785C104.693 23.0293 104.693 22.6094 104.855 22.2188C106.268 22.0755 106.981 21.8835 106.994 21.6426C107.072 19.5983 107.111 17.5508 107.111 15.5C107.111 13.4036 107.079 11.5905 107.014 10.0605C107.001 9.81966 106.275 9.6276 104.836 9.48438C104.725 9.06771 104.738 8.64779 104.875 8.22461C105.448 8.22461 106.223 8.24089 107.199 8.27344C108.182 8.30599 108.866 8.32227 109.25 8.32227C109.53 8.32227 110.07 8.31576 110.871 8.30273C111.672 8.28971 112.365 8.2832 112.951 8.2832C113.068 8.6543 113.075 9.05469 112.971 9.48438C111.532 9.6276 110.806 9.81966 110.793 10.0605C110.715 11.8574 110.676 13.5371 110.676 15.0996C111.301 15.1387 112.092 15.1452 113.049 15.1191L116.047 15.0801C116.021 12.9577 115.988 11.2845 115.949 10.0605C115.936 9.81966 115.21 9.6276 113.771 9.48438C113.654 9.02865 113.667 8.60872 113.811 8.22461C114.755 8.28971 116.034 8.32227 117.648 8.32227C117.954 8.32227 118.576 8.31576 119.514 8.30273C120.458 8.28971 121.249 8.2832 121.887 8.2832C122.01 8.6543 122.02 9.05469 121.916 9.48438C120.471 9.6276 119.742 9.81966 119.729 10.0605C119.663 11.6751 119.631 13.6087 119.631 15.8613C119.631 18.1009 119.663 20.028 119.729 21.6426C119.742 21.8835 120.471 22.0755 121.916 22.2188C122.02 22.6354 122.004 23.0553 121.867 23.4785C119.764 23.4264 118.54 23.4004 118.195 23.4004C117.674 23.4004 116.213 23.4264 113.811 23.4785C113.654 23.0293 113.654 22.6094 113.811 22.2188C115.236 22.0755 115.949 21.89 115.949 21.6621ZM130.109 20.6367C130.161 19.0091 130.161 17.3783 130.109 15.7441C130.109 15.5163 129.618 15.321 128.635 15.1582C128.485 14.7611 128.485 14.3672 128.635 13.9766H132.854C133.036 14.0482 133.166 14.1263 133.244 14.2109C133.329 14.2956 133.404 14.4193 133.469 14.582C133.469 14.6992 133.452 14.8848 133.42 15.1387C133.387 15.3926 133.371 15.5944 133.371 15.7441C133.306 17.8861 133.306 19.7513 133.371 21.3398C133.84 21.4896 134.335 21.5775 134.855 21.6035C134.999 21.9876 134.999 22.401 134.855 22.8438C134.003 22.8958 132.948 23.1888 131.691 23.7227C130.982 23.6706 130.454 23.4557 130.109 23.0781V22.8242C129.217 23.3971 128.16 23.6836 126.936 23.6836C126.05 23.6836 125.422 23.4427 125.051 22.9609C124.68 22.4792 124.488 21.724 124.475 20.6953C124.488 19.0612 124.488 17.4108 124.475 15.7441C124.475 15.5163 123.98 15.321 122.99 15.1582C122.847 14.7611 122.847 14.3672 122.99 13.9766H127.229C127.417 14.0482 127.551 14.1263 127.629 14.2109C127.714 14.2956 127.788 14.4193 127.854 14.582C127.854 14.6992 127.837 14.8848 127.805 15.1387C127.772 15.3926 127.756 15.5944 127.756 15.7441C127.71 17.2611 127.71 18.8073 127.756 20.3828C127.782 21.125 127.915 21.5579 128.156 21.6816C128.632 21.5579 129.283 21.2096 130.109 20.6367ZM130.51 15.7441C130.549 17.4368 130.549 19.1361 130.51 20.8418C129.299 21.7077 128.365 22.1406 127.707 22.1406C126.815 22.1406 126.369 21.5547 126.369 20.3828C126.33 18.8073 126.33 17.2611 126.369 15.7441C126.369 15.5684 126.385 15.3568 126.418 15.1094C126.457 14.862 126.477 14.7057 126.477 14.6406C126.405 14.4909 126.311 14.39 126.193 14.3379C125.23 14.403 124.27 14.403 123.312 14.3379C123.26 14.4876 123.26 14.6406 123.312 14.7969C124.341 14.9596 124.862 15.2754 124.875 15.7441C124.888 17.3978 124.888 19.0482 124.875 20.6953C124.862 21.5807 125.015 22.235 125.334 22.6582C125.653 23.0749 126.187 23.2832 126.936 23.2832C127.919 23.2832 129.11 22.6745 130.51 21.457V22.8828C130.562 22.987 130.676 23.0716 130.852 23.1367C131.783 22.7917 132.99 22.5605 134.475 22.4434C134.527 22.2806 134.527 22.1276 134.475 21.9844C133.355 21.9388 132.528 21.8053 131.994 21.584C131.942 19.2598 131.942 17.3132 131.994 15.7441C131.994 15.5684 132.01 15.3568 132.043 15.1094C132.076 14.862 132.092 14.7057 132.092 14.6406C132.027 14.4909 131.932 14.39 131.809 14.3379C130.865 14.39 129.911 14.39 128.947 14.3379C128.895 14.4876 128.895 14.6406 128.947 14.7969C129.976 14.9596 130.497 15.2754 130.51 15.7441ZM142.951 22.5508C142.873 22.7005 142.873 22.86 142.951 23.0293C144.644 22.9902 146.34 22.9902 148.039 23.0293C148.13 22.873 148.13 22.7135 148.039 22.5508C146.451 22.4727 145.65 22.1602 145.637 21.6133L145.539 16.7012C145.507 15.8092 145.36 15.1582 145.1 14.748C144.846 14.3314 144.396 14.123 143.752 14.123C142.671 14.123 141.385 14.8685 139.895 16.3594V14.416C139.842 14.3118 139.729 14.2272 139.553 14.1621C138.648 14.5853 137.707 14.8522 136.73 14.9629C136.691 15.1191 136.691 15.2721 136.73 15.4219C137.479 15.4609 138.033 15.5944 138.391 15.8223C138.462 17.7689 138.462 19.6992 138.391 21.6133C138.378 22.0951 137.818 22.4076 136.711 22.5508C136.633 22.7005 136.633 22.86 136.711 23.0293C138.404 22.9642 140.106 22.9642 141.818 23.0293C141.896 22.86 141.896 22.7005 141.818 22.5508C140.601 22.4206 139.986 22.1081 139.973 21.6133C139.921 20.2591 139.895 18.7161 139.895 16.9844C141.203 15.832 142.229 15.2559 142.971 15.2559C143.68 15.2559 144.035 15.8451 144.035 17.0234L144.016 21.6133C144.016 21.9323 143.918 22.1569 143.723 22.2871C143.527 22.4108 143.27 22.4987 142.951 22.5508ZM142.639 23.3711C142.476 22.987 142.476 22.5931 142.639 22.1895C142.847 22.1895 143.062 22.1341 143.283 22.0234C143.505 21.9062 143.615 21.7695 143.615 21.6133L143.635 17.0234C143.635 16.3138 143.495 15.8809 143.215 15.7246C142.733 15.8418 142.085 16.1934 141.271 16.7793C141.271 18.5697 141.298 20.1745 141.35 21.5938C141.382 21.9388 141.643 22.1374 142.131 22.1895C142.294 22.5931 142.294 22.987 142.131 23.3711C140.223 23.306 138.306 23.306 136.379 23.3711C136.216 22.987 136.216 22.5931 136.379 22.1895C137.44 22.0462 137.977 21.8477 137.99 21.5938C138.062 19.7578 138.062 17.9121 137.99 16.0566C137.554 15.9264 137.017 15.8418 136.379 15.8027C136.229 15.4121 136.229 14.9987 136.379 14.5625C137.362 14.5104 138.469 14.2174 139.699 13.6836C140.402 13.7357 140.926 13.9473 141.271 14.3184V14.6406C142.196 14.0286 143.257 13.7227 144.455 13.7227C145.334 13.7227 145.959 13.9635 146.33 14.4453C146.708 14.9206 146.903 15.6725 146.916 16.7012C146.942 19.2858 146.975 20.9232 147.014 21.6133C147.027 21.8802 147.486 22.0723 148.391 22.1895C148.54 22.6191 148.527 23.013 148.352 23.3711C146.444 23.332 144.54 23.332 142.639 23.3711ZM152.805 15.3047H156.643C156.734 15.0508 156.734 14.8164 156.643 14.6016H152.805V12.4629C152.642 12.3913 152.479 12.3913 152.316 12.4629C152.076 12.9121 151.809 13.306 151.516 13.6445C151.223 13.9766 150.975 14.2109 150.773 14.3477C150.578 14.4779 150.295 14.6471 149.924 14.8555C149.878 14.9922 149.878 15.1419 149.924 15.3047H151.115V20.4219C151.115 22.3294 151.903 23.2832 153.479 23.2832C154.149 23.2832 154.768 23.1107 155.334 22.7656C155.9 22.4141 156.324 21.9844 156.604 21.4766C156.545 21.3333 156.438 21.2552 156.281 21.2422C155.669 21.7891 155.077 22.0625 154.504 22.0625C153.371 22.0625 152.805 21.5482 152.805 20.5195V15.3047ZM156.164 20.8223C156.574 20.8743 156.867 21.099 157.043 21.4961C156.704 22.1146 156.213 22.6322 155.568 23.0488C154.924 23.472 154.227 23.6836 153.479 23.6836C151.643 23.6836 150.725 22.5964 150.725 20.4219V15.6953H149.523C149.426 15.3503 149.426 14.9922 149.523 14.6211C149.921 14.3932 150.223 14.2077 150.432 14.0645C150.64 13.9147 150.9 13.6738 151.213 13.3418C151.525 13.0098 151.802 12.6094 152.043 12.1406C152.655 11.8867 153.368 11.8997 154.182 12.1797V14.2012H157.023C157.232 14.6829 157.232 15.181 157.023 15.6953H154.182V20.5195C154.182 21.1445 154.406 21.5124 154.855 21.623C155.246 21.5384 155.682 21.2715 156.164 20.8223Z" fill="black"/>
<path d="M62.424 36.792V37H60.496V36.792L60.936 36.744C61.0213 36.7333 61.072 36.712 61.088 36.68C61.104 36.648 61.112 36.5387 61.112 36.352V34.384H58.696V36.352C58.696 36.5387 58.704 36.648 58.72 36.68C58.736 36.712 58.7867 36.7333 58.872 36.744L59.312 36.792V37H57.384V36.792L57.824 36.744C57.9093 36.7333 57.96 36.712 57.976 36.68C57.992 36.648 58 36.5387 58 36.352V32.208C58 32.0213 57.992 31.912 57.976 31.88C57.96 31.848 57.9093 31.8267 57.824 31.816L57.384 31.776V31.56H59.312V31.776L58.872 31.816C58.7867 31.8267 58.736 31.848 58.72 31.88C58.704 31.912 58.696 32.0213 58.696 32.208V34.128H61.112V32.208C61.112 32.0213 61.104 31.912 61.088 31.88C61.072 31.848 61.0213 31.8267 60.936 31.816L60.496 31.776V31.56H62.424V31.776L61.984 31.816C61.8987 31.8267 61.848 31.848 61.832 31.88C61.816 31.912 61.808 32.0213 61.808 32.208V36.352C61.808 36.5387 61.816 36.648 61.832 36.68C61.848 36.712 61.8987 36.7333 61.984 36.744L62.424 36.792ZM67.3647 36.792V37H66.1327V36.36C65.946 36.6107 65.7327 36.7947 65.4927 36.912C65.258 37.024 65.0234 37.08 64.7887 37.08C64.41 37.08 64.114 36.96 63.9007 36.72C63.6927 36.4747 63.5887 36.1307 63.5887 35.688V33.688C63.5887 33.5013 63.5807 33.392 63.5647 33.36C63.5487 33.328 63.498 33.3067 63.4127 33.296L62.9727 33.256V33.04H64.2447V35.68C64.2447 36.0747 64.3034 36.3547 64.4207 36.52C64.5434 36.68 64.7194 36.76 64.9487 36.76C65.1194 36.76 65.306 36.7067 65.5087 36.6C65.7167 36.4933 65.9114 36.288 66.0927 35.984V33.688C66.0927 33.5013 66.0847 33.392 66.0687 33.36C66.0527 33.3227 66.002 33.3013 65.9167 33.296L65.3167 33.256V33.04H66.7487V36.352C66.7487 36.5387 66.7567 36.648 66.7727 36.68C66.7887 36.712 66.8394 36.7333 66.9247 36.744L67.3647 36.792ZM72.3458 36.792V37H70.4578V36.792L70.8978 36.744C70.9831 36.7333 71.0338 36.712 71.0498 36.68C71.0658 36.648 71.0738 36.5387 71.0738 36.352V34.36C71.0738 33.9653 71.0098 33.688 70.8818 33.528C70.7538 33.3627 70.5698 33.28 70.3298 33.28C70.1538 33.28 69.9591 33.3333 69.7458 33.44C69.5324 33.5467 69.3324 33.7547 69.1458 34.064V36.352C69.1458 36.5387 69.1538 36.648 69.1698 36.68C69.1858 36.712 69.2364 36.7333 69.3218 36.744L69.7618 36.792V37H67.8738V36.792L68.3138 36.744C68.3991 36.7333 68.4498 36.712 68.4658 36.68C68.4818 36.648 68.4898 36.5387 68.4898 36.352V33.688C68.4898 33.5013 68.4818 33.392 68.4658 33.36C68.4498 33.328 68.3991 33.3067 68.3138 33.296L67.8738 33.256V33.04H69.1058V33.688C69.2978 33.432 69.5138 33.248 69.7538 33.136C69.9991 33.0187 70.2444 32.96 70.4898 32.96C70.8844 32.96 71.1884 33.0827 71.4018 33.328C71.6204 33.568 71.7298 33.9093 71.7298 34.352V36.352C71.7298 36.5387 71.7378 36.648 71.7538 36.68C71.7698 36.712 71.8204 36.7333 71.9058 36.744L72.3458 36.792ZM75.4513 36.184C75.3713 36.4933 75.2459 36.72 75.0753 36.864C74.9046 37.008 74.6859 37.08 74.4193 37.08C74.1633 37.08 73.9553 37.024 73.7953 36.912C73.6353 36.7947 73.5179 36.6427 73.4433 36.456C73.3686 36.2693 73.3313 36.0747 73.3313 35.872V33.688C73.3313 33.5013 73.3233 33.392 73.3073 33.36C73.2966 33.328 73.2459 33.3067 73.1553 33.296L72.7153 33.256V33.04H73.3313V31.992L73.9873 31.856V33.04H75.2913V33.296H73.9873V35.936C73.9873 36.272 74.0326 36.504 74.1233 36.632C74.2193 36.76 74.3446 36.824 74.4993 36.824C74.6539 36.824 74.7713 36.7653 74.8513 36.648C74.9366 36.5307 74.9979 36.3387 75.0353 36.072L75.4513 36.184ZM79.5975 36.824C79.9548 36.824 80.2428 36.736 80.4615 36.56C80.6855 36.384 80.7975 36.1253 80.7975 35.784C80.7975 35.512 80.7148 35.2853 80.5495 35.104C80.3842 34.9173 80.0962 34.768 79.6855 34.656L79.1335 34.496C78.7282 34.384 78.4188 34.1947 78.2055 33.928C77.9922 33.6613 77.8855 33.336 77.8855 32.952C77.8855 32.696 77.9442 32.456 78.0615 32.232C78.1842 32.008 78.3682 31.8267 78.6135 31.688C78.8642 31.5493 79.1815 31.48 79.5655 31.48C79.9922 31.48 80.3362 31.56 80.5975 31.72C80.8588 31.8747 81.0402 32.0773 81.1415 32.328C81.2428 32.5787 81.2668 32.848 81.2135 33.136L80.5415 33.28C80.6108 32.784 80.5602 32.4027 80.3895 32.136C80.2242 31.8693 79.9362 31.736 79.5255 31.736C79.2002 31.736 78.9442 31.824 78.7575 32C78.5708 32.1707 78.4775 32.4213 78.4775 32.752C78.4775 33.0133 78.5522 33.2373 78.7015 33.424C78.8508 33.6053 79.1148 33.7493 79.4935 33.856L80.0455 34.016C80.9362 34.2613 81.3815 34.7813 81.3815 35.576C81.3815 35.8587 81.3148 36.1147 81.1815 36.344C81.0535 36.568 80.8562 36.7467 80.5895 36.88C80.3282 37.0133 79.9975 37.08 79.5975 37.08C79.3202 37.08 79.0535 37.0373 78.7975 36.952C78.5468 36.8667 78.3308 36.72 78.1495 36.512C77.9735 36.304 77.8562 36.016 77.7975 35.648L78.2775 35.488C78.3042 35.84 78.3815 36.112 78.5095 36.304C78.6375 36.496 78.7975 36.632 78.9895 36.712C79.1815 36.7867 79.3842 36.824 79.5975 36.824ZM86.4923 36.792V37H84.6043V36.792L85.0443 36.744C85.1296 36.7333 85.1803 36.712 85.1963 36.68C85.2123 36.648 85.2203 36.5387 85.2203 36.352V34.36C85.2203 33.9653 85.159 33.688 85.0363 33.528C84.919 33.3627 84.7456 33.28 84.5163 33.28C84.351 33.28 84.1643 33.3333 83.9563 33.44C83.7536 33.5467 83.559 33.752 83.3723 34.056V36.352C83.3723 36.5387 83.3803 36.648 83.3963 36.68C83.4123 36.712 83.463 36.7333 83.5483 36.744L83.9883 36.792V37H82.1003V36.792L82.5403 36.744C82.6256 36.7333 82.6763 36.712 82.6923 36.68C82.7083 36.648 82.7163 36.5387 82.7163 36.352V33.688C82.7163 33.5013 82.7083 33.392 82.6923 33.36C82.6763 33.328 82.6256 33.3067 82.5403 33.296L82.1003 33.256V33.04H83.3323V33.688C83.519 33.4373 83.7296 33.2533 83.9643 33.136C84.2043 33.0187 84.4416 32.96 84.6763 32.96C85.2523 32.96 85.623 33.224 85.7883 33.752C85.9856 33.4747 86.2043 33.2747 86.4443 33.152C86.6896 33.024 86.935 32.96 87.1803 32.96C87.559 32.96 87.8523 33.0827 88.0603 33.328C88.2736 33.568 88.3803 33.9093 88.3803 34.352V36.352C88.3803 36.5387 88.3883 36.648 88.4043 36.68C88.4203 36.712 88.471 36.7333 88.5563 36.744L88.9963 36.792V37H87.1083V36.792L87.5483 36.744C87.6336 36.7333 87.6843 36.712 87.7003 36.68C87.7163 36.648 87.7243 36.5387 87.7243 36.352V34.36C87.7243 33.9653 87.663 33.688 87.5403 33.528C87.423 33.3627 87.2496 33.28 87.0203 33.28C86.855 33.28 86.6656 33.336 86.4523 33.448C86.2443 33.5547 86.047 33.7653 85.8603 34.08C85.8656 34.1227 85.8683 34.168 85.8683 34.216C85.8736 34.2587 85.8763 34.304 85.8763 34.352V36.352C85.8763 36.5387 85.8843 36.648 85.9003 36.68C85.9163 36.712 85.967 36.7333 86.0523 36.744L86.4923 36.792ZM92.7557 37.056C92.3397 37.056 92.0944 36.864 92.0197 36.48C91.833 36.6933 91.6277 36.848 91.4037 36.944C91.1797 37.0347 90.9584 37.08 90.7397 37.08C90.3664 37.08 90.0917 36.976 89.9157 36.768C89.7397 36.56 89.6517 36.3093 89.6517 36.016C89.6517 35.7013 89.7584 35.4533 89.9717 35.272C90.1904 35.0853 90.5664 34.992 91.0997 34.992H92.0037V34.344C92.0037 33.9173 91.929 33.624 91.7797 33.464C91.6357 33.2987 91.4384 33.216 91.1877 33.216C91.0277 33.216 90.8837 33.248 90.7557 33.312C90.6277 33.376 90.5344 33.4933 90.4757 33.664C90.4224 33.8293 90.417 34.072 90.4597 34.392L89.8277 34.296C89.801 34.0453 89.833 33.8213 89.9237 33.624C90.0197 33.4213 90.1744 33.2613 90.3877 33.144C90.6064 33.0213 90.8784 32.96 91.2037 32.96C91.593 32.96 91.8917 33.0267 92.0997 33.16C92.3077 33.288 92.4517 33.456 92.5317 33.664C92.617 33.872 92.6597 34.0987 92.6597 34.344V36.144C92.6597 36.416 92.689 36.5867 92.7477 36.656C92.8117 36.7253 92.881 36.76 92.9557 36.76C93.0037 36.76 93.0544 36.7493 93.1077 36.728C93.161 36.7013 93.2197 36.6613 93.2837 36.608L93.4277 36.808C93.3477 36.8773 93.2517 36.936 93.1397 36.984C93.033 37.032 92.905 37.056 92.7557 37.056ZM90.9637 36.744C91.113 36.744 91.273 36.704 91.4437 36.624C91.6197 36.5387 91.8064 36.3707 92.0037 36.12V35.248H91.1877C90.889 35.248 90.6704 35.3093 90.5317 35.432C90.3984 35.5493 90.3317 35.7333 90.3317 35.984C90.3317 36.224 90.3824 36.4107 90.4837 36.544C90.5904 36.6773 90.7504 36.744 90.9637 36.744ZM93.78 33.256V33.04H95.012V33.68C95.1987 33.4293 95.3853 33.248 95.572 33.136C95.764 33.0187 95.9587 32.96 96.156 32.96C96.3267 32.96 96.4867 33.0107 96.636 33.112C96.7853 33.2133 96.9107 33.376 97.012 33.6L96.492 33.912C96.412 33.72 96.3213 33.5867 96.22 33.512C96.1187 33.4373 96.0067 33.4 95.884 33.4C95.7507 33.4 95.6173 33.4427 95.484 33.528C95.356 33.6133 95.212 33.7733 95.052 34.008V36.352C95.052 36.5387 95.06 36.6507 95.076 36.688C95.092 36.72 95.1427 36.7387 95.228 36.744L95.828 36.792V37H93.78V36.792L94.22 36.744C94.3053 36.7333 94.356 36.712 94.372 36.68C94.388 36.648 94.396 36.5387 94.396 36.352V33.688C94.396 33.5013 94.388 33.392 94.372 33.36C94.356 33.328 94.3053 33.3067 94.22 33.296L93.78 33.256ZM99.9356 36.184C99.8556 36.4933 99.7303 36.72 99.5596 36.864C99.389 37.008 99.1703 37.08 98.9036 37.08C98.6476 37.08 98.4396 37.024 98.2796 36.912C98.1196 36.7947 98.0023 36.6427 97.9276 36.456C97.853 36.2693 97.8156 36.0747 97.8156 35.872V33.688C97.8156 33.5013 97.8076 33.392 97.7916 33.36C97.781 33.328 97.7303 33.3067 97.6396 33.296L97.1996 33.256V33.04H97.8156V31.992L98.4716 31.856V33.04H99.7756V33.296H98.4716V35.936C98.4716 36.272 98.517 36.504 98.6076 36.632C98.7036 36.76 98.829 36.824 98.9836 36.824C99.1383 36.824 99.2556 36.7653 99.3356 36.648C99.421 36.5307 99.4823 36.3387 99.5196 36.072L99.9356 36.184ZM103.797 36.088C103.701 36.4507 103.52 36.7067 103.253 36.856C102.992 37.0053 102.701 37.08 102.381 37.08C101.789 37.08 101.347 36.9013 101.053 36.544C100.76 36.1813 100.613 35.6987 100.613 35.096V34.936C100.613 34.3387 100.755 33.8613 101.037 33.504C101.32 33.1413 101.731 32.96 102.269 32.96C102.557 32.96 102.819 33.0187 103.053 33.136C103.293 33.2533 103.483 33.4267 103.621 33.656C103.765 33.8853 103.837 34.1707 103.837 34.512C103.837 34.672 103.821 34.84 103.789 35.016H101.333V35.256C101.333 35.816 101.419 36.2187 101.589 36.464C101.765 36.704 102.048 36.824 102.437 36.824C102.683 36.824 102.885 36.76 103.045 36.632C103.211 36.504 103.32 36.2827 103.373 35.968L103.797 36.088ZM102.269 33.216C101.955 33.216 101.72 33.336 101.565 33.576C101.411 33.816 101.333 34.2107 101.333 34.76H103.133V34.736C103.144 34.6667 103.152 34.6 103.157 34.536C103.163 34.4667 103.165 34.4053 103.165 34.352C103.165 33.952 103.083 33.664 102.917 33.488C102.752 33.3067 102.536 33.216 102.269 33.216ZM104.593 33.256V33.04H105.825V33.68C106.011 33.4293 106.198 33.248 106.385 33.136C106.577 33.0187 106.771 32.96 106.969 32.96C107.139 32.96 107.299 33.0107 107.449 33.112C107.598 33.2133 107.723 33.376 107.825 33.6L107.305 33.912C107.225 33.72 107.134 33.5867 107.033 33.512C106.931 33.4373 106.819 33.4 106.697 33.4C106.563 33.4 106.43 33.4427 106.297 33.528C106.169 33.6133 106.025 33.7733 105.865 34.008V36.352C105.865 36.5387 105.873 36.6507 105.889 36.688C105.905 36.72 105.955 36.7387 106.041 36.744L106.641 36.792V37H104.593V36.792L105.033 36.744C105.118 36.7333 105.169 36.712 105.185 36.68C105.201 36.648 105.209 36.5387 105.209 36.352V33.688C105.209 33.5013 105.201 33.392 105.185 33.36C105.169 33.328 105.118 33.3067 105.033 33.296L104.593 33.256ZM108.777 36.736C108.777 36.976 108.697 37.256 108.537 37.576C108.382 37.896 108.166 38.2187 107.889 38.544L107.713 38.4C107.931 38.1333 108.089 37.888 108.185 37.664C108.281 37.4453 108.334 37.2507 108.345 37.08H108.337C108.209 37.08 108.105 37.04 108.025 36.96C107.945 36.88 107.905 36.776 107.905 36.648C107.905 36.52 107.945 36.416 108.025 36.336C108.105 36.256 108.209 36.216 108.337 36.216C108.465 36.216 108.569 36.2613 108.649 36.352C108.734 36.4373 108.777 36.5653 108.777 36.736ZM111.564 31.776V31.56H113.788C114.31 31.56 114.71 31.6853 114.988 31.936C115.27 32.1813 115.412 32.5093 115.412 32.92V33.168C115.412 33.4933 115.321 33.7707 115.14 34C114.964 34.224 114.71 34.3787 114.38 34.464L115.404 36.352C115.473 36.48 115.524 36.5707 115.556 36.624C115.588 36.672 115.617 36.704 115.644 36.72C115.676 36.7307 115.718 36.7387 115.772 36.744L116.132 36.792V37H114.924L113.66 34.536H112.876V36.352C112.876 36.5387 112.884 36.648 112.9 36.68C112.916 36.712 112.966 36.7333 113.052 36.744L113.492 36.792V37H111.564V36.792L112.004 36.744C112.089 36.7333 112.14 36.712 112.156 36.68C112.172 36.648 112.18 36.5387 112.18 36.352V32.208C112.18 32.0213 112.172 31.912 112.156 31.88C112.14 31.848 112.089 31.8267 112.004 31.816L111.564 31.776ZM113.788 31.816H112.876V34.28H113.788C114.065 34.28 114.281 34.192 114.436 34.016C114.596 33.8347 114.676 33.5627 114.676 33.2V32.888C114.676 32.5253 114.596 32.256 114.436 32.08C114.281 31.904 114.065 31.816 113.788 31.816ZM119.836 36.088C119.74 36.4507 119.559 36.7067 119.292 36.856C119.031 37.0053 118.74 37.08 118.42 37.08C117.828 37.08 117.386 36.9013 117.092 36.544C116.799 36.1813 116.652 35.6987 116.652 35.096V34.936C116.652 34.3387 116.794 33.8613 117.076 33.504C117.359 33.1413 117.77 32.96 118.308 32.96C118.596 32.96 118.858 33.0187 119.092 33.136C119.332 33.2533 119.522 33.4267 119.66 33.656C119.804 33.8853 119.876 34.1707 119.876 34.512C119.876 34.672 119.86 34.84 119.828 35.016H117.372V35.256C117.372 35.816 117.458 36.2187 117.628 36.464C117.804 36.704 118.087 36.824 118.476 36.824C118.722 36.824 118.924 36.76 119.084 36.632C119.25 36.504 119.359 36.2827 119.412 35.968L119.836 36.088ZM118.308 33.216C117.994 33.216 117.759 33.336 117.604 33.576C117.45 33.816 117.372 34.2107 117.372 34.76H119.172V34.736C119.183 34.6667 119.191 34.6 119.196 34.536C119.202 34.4667 119.204 34.4053 119.204 34.352C119.204 33.952 119.122 33.664 118.956 33.488C118.791 33.3067 118.575 33.216 118.308 33.216ZM123.928 37.056C123.512 37.056 123.266 36.864 123.192 36.48C123.005 36.6933 122.8 36.848 122.576 36.944C122.352 37.0347 122.13 37.08 121.912 37.08C121.538 37.08 121.264 36.976 121.088 36.768C120.912 36.56 120.824 36.3093 120.824 36.016C120.824 35.7013 120.93 35.4533 121.144 35.272C121.362 35.0853 121.738 34.992 122.272 34.992H123.176V34.344C123.176 33.9173 123.101 33.624 122.952 33.464C122.808 33.2987 122.61 33.216 122.36 33.216C122.2 33.216 122.056 33.248 121.928 33.312C121.8 33.376 121.706 33.4933 121.648 33.664C121.594 33.8293 121.589 34.072 121.632 34.392L121 34.296C120.973 34.0453 121.005 33.8213 121.096 33.624C121.192 33.4213 121.346 33.2613 121.56 33.144C121.778 33.0213 122.05 32.96 122.376 32.96C122.765 32.96 123.064 33.0267 123.272 33.16C123.48 33.288 123.624 33.456 123.704 33.664C123.789 33.872 123.832 34.0987 123.832 34.344V36.144C123.832 36.416 123.861 36.5867 123.92 36.656C123.984 36.7253 124.053 36.76 124.128 36.76C124.176 36.76 124.226 36.7493 124.28 36.728C124.333 36.7013 124.392 36.6613 124.456 36.608L124.6 36.808C124.52 36.8773 124.424 36.936 124.312 36.984C124.205 37.032 124.077 37.056 123.928 37.056ZM122.136 36.744C122.285 36.744 122.445 36.704 122.616 36.624C122.792 36.5387 122.978 36.3707 123.176 36.12V35.248H122.36C122.061 35.248 121.842 35.3093 121.704 35.432C121.57 35.5493 121.504 35.7333 121.504 35.984C121.504 36.224 121.554 36.4107 121.656 36.544C121.762 36.6773 121.922 36.744 122.136 36.744ZM129.088 36.8V37H127.856V36.368C127.691 36.6133 127.507 36.7947 127.304 36.912C127.107 37.024 126.885 37.08 126.64 37.08C126.181 37.08 125.824 36.9093 125.568 36.568C125.317 36.2213 125.192 35.7333 125.192 35.104V34.944C125.192 34.3413 125.339 33.8613 125.632 33.504C125.931 33.1413 126.339 32.96 126.856 32.96C127.235 32.96 127.555 33.0773 127.816 33.312V31.728C127.816 31.5413 127.808 31.432 127.792 31.4C127.776 31.368 127.725 31.3467 127.64 31.336L127.2 31.296V31.08H128.472V36.352C128.472 36.5387 128.48 36.648 128.496 36.68C128.512 36.712 128.563 36.7333 128.648 36.744L129.088 36.8ZM125.912 35.344C125.912 35.8453 125.984 36.2133 126.128 36.448C126.277 36.6827 126.483 36.8 126.744 36.8C126.915 36.8 127.091 36.7467 127.272 36.64C127.453 36.5333 127.635 36.3173 127.816 35.992V33.704C127.581 33.3893 127.275 33.232 126.896 33.232C126.555 33.232 126.304 33.3627 126.144 33.624C125.989 33.8853 125.912 34.2453 125.912 34.704V35.344ZM131.293 31.296V31.08H132.565V33.616C132.72 33.3867 132.896 33.2213 133.093 33.12C133.29 33.0133 133.504 32.96 133.733 32.96C134.192 32.96 134.546 33.1333 134.797 33.48C135.053 33.8267 135.181 34.312 135.181 34.936V35.096C135.181 35.704 135.034 36.1867 134.741 36.544C134.453 36.9013 134.048 37.08 133.525 37.08C133.109 37.08 132.768 36.944 132.501 36.672C132.426 36.7147 132.357 36.768 132.293 36.832C132.229 36.896 132.165 36.9653 132.101 37.04H131.909V31.728C131.909 31.5413 131.901 31.432 131.885 31.4C131.869 31.368 131.818 31.3467 131.733 31.336L131.293 31.296ZM133.629 33.248C133.464 33.248 133.29 33.3013 133.109 33.408C132.933 33.5147 132.752 33.7307 132.565 34.056V36.344C132.794 36.6587 133.098 36.816 133.477 36.816C133.824 36.816 134.074 36.6853 134.229 36.424C134.384 36.1573 134.461 35.7947 134.461 35.336V34.696C134.461 34.1947 134.389 33.8293 134.245 33.6C134.101 33.3653 133.896 33.248 133.629 33.248ZM139.399 36.088C139.303 36.4507 139.122 36.7067 138.855 36.856C138.594 37.0053 138.303 37.08 137.983 37.08C137.391 37.08 136.948 36.9013 136.655 36.544C136.362 36.1813 136.215 35.6987 136.215 35.096V34.936C136.215 34.3387 136.356 33.8613 136.639 33.504C136.922 33.1413 137.332 32.96 137.871 32.96C138.159 32.96 138.42 33.0187 138.655 33.136C138.895 33.2533 139.084 33.4267 139.223 33.656C139.367 33.8853 139.439 34.1707 139.439 34.512C139.439 34.672 139.423 34.84 139.391 35.016H136.935V35.256C136.935 35.816 137.02 36.2187 137.191 36.464C137.367 36.704 137.65 36.824 138.039 36.824C138.284 36.824 138.487 36.76 138.647 36.632C138.812 36.504 138.922 36.2827 138.975 35.968L139.399 36.088ZM137.871 33.216C137.556 33.216 137.322 33.336 137.167 33.576C137.012 33.816 136.935 34.2107 136.935 34.76H138.735V34.736C138.746 34.6667 138.754 34.6 138.759 34.536C138.764 34.4667 138.767 34.4053 138.767 34.352C138.767 33.952 138.684 33.664 138.519 33.488C138.354 33.3067 138.138 33.216 137.871 33.216ZM142.834 36.184C142.754 36.4933 142.629 36.72 142.458 36.864C142.287 37.008 142.069 37.08 141.802 37.08C141.546 37.08 141.338 37.024 141.178 36.912C141.018 36.7947 140.901 36.6427 140.826 36.456C140.751 36.2693 140.714 36.0747 140.714 35.872V33.688C140.714 33.5013 140.706 33.392 140.69 33.36C140.679 33.328 140.629 33.3067 140.538 33.296L140.098 33.256V33.04H140.714V31.992L141.37 31.856V33.04H142.674V33.296H141.37V35.936C141.37 36.272 141.415 36.504 141.506 36.632C141.602 36.76 141.727 36.824 141.882 36.824C142.037 36.824 142.154 36.7653 142.234 36.648C142.319 36.5307 142.381 36.3387 142.418 36.072L142.834 36.184ZM145.928 36.184C145.848 36.4933 145.722 36.72 145.552 36.864C145.381 37.008 145.162 37.08 144.896 37.08C144.64 37.08 144.432 37.024 144.272 36.912C144.112 36.7947 143.994 36.6427 143.92 36.456C143.845 36.2693 143.808 36.0747 143.808 35.872V33.688C143.808 33.5013 143.8 33.392 143.784 33.36C143.773 33.328 143.722 33.3067 143.632 33.296L143.192 33.256V33.04H143.808V31.992L144.464 31.856V33.04H145.768V33.296H144.464V35.936C144.464 36.272 144.509 36.504 144.6 36.632C144.696 36.76 144.821 36.824 144.976 36.824C145.13 36.824 145.248 36.7653 145.328 36.648C145.413 36.5307 145.474 36.3387 145.512 36.072L145.928 36.184ZM149.79 36.088C149.694 36.4507 149.512 36.7067 149.246 36.856C148.984 37.0053 148.694 37.08 148.374 37.08C147.782 37.08 147.339 36.9013 147.046 36.544C146.752 36.1813 146.606 35.6987 146.606 35.096V34.936C146.606 34.3387 146.747 33.8613 147.03 33.504C147.312 33.1413 147.723 32.96 148.262 32.96C148.55 32.96 148.811 33.0187 149.046 33.136C149.286 33.2533 149.475 33.4267 149.614 33.656C149.758 33.8853 149.83 34.1707 149.83 34.512C149.83 34.672 149.814 34.84 149.782 35.016H147.326V35.256C147.326 35.816 147.411 36.2187 147.582 36.464C147.758 36.704 148.04 36.824 148.43 36.824C148.675 36.824 148.878 36.76 149.038 36.632C149.203 36.504 149.312 36.2827 149.366 35.968L149.79 36.088ZM148.262 33.216C147.947 33.216 147.712 33.336 147.558 33.576C147.403 33.816 147.326 34.2107 147.326 34.76H149.126V34.736C149.136 34.6667 149.144 34.6 149.15 34.536C149.155 34.4667 149.158 34.4053 149.158 34.352C149.158 33.952 149.075 33.664 148.91 33.488C148.744 33.3067 148.528 33.216 148.262 33.216ZM150.585 33.256V33.04H151.817V33.68C152.003 33.4293 152.19 33.248 152.377 33.136C152.569 33.0187 152.763 32.96 152.961 32.96C153.131 32.96 153.291 33.0107 153.441 33.112C153.59 33.2133 153.715 33.376 153.817 33.6L153.297 33.912C153.217 33.72 153.126 33.5867 153.025 33.512C152.923 33.4373 152.811 33.4 152.689 33.4C152.555 33.4 152.422 33.4427 152.289 33.528C152.161 33.6133 152.017 33.7733 151.857 34.008V36.352C151.857 36.5387 151.865 36.6507 151.881 36.688C151.897 36.72 151.947 36.7387 152.033 36.744L152.633 36.792V37H150.585V36.792L151.025 36.744C151.11 36.7333 151.161 36.712 151.177 36.68C151.193 36.648 151.201 36.5387 151.201 36.352V33.688C151.201 33.5013 151.193 33.392 151.177 33.36C151.161 33.328 151.11 33.3067 151.025 33.296L150.585 33.256Z" fill="black"/>
</svg>
